<svg width="151" height="151" viewBox="0 0 151 151" fill="none" xmlns="http://www.w3.org/2000/svg">
<g clip-path="url(#clip0_39_4860)">
<path d="M150.5 150.5H61.5943C27.9145 150.5 0.5 121.874 0.5 86.7049V40.9973C0.5 18.6764 17.9069 0.5 39.2828 0.5H140.521C146.021 0.5 150.5 5.17732 150.5 10.9204V36.5272H136.325V15.3017H39.2828C25.7315 15.3017 14.675 26.8174 14.675 40.9973V86.7049C14.675 113.703 35.7107 135.698 61.5943 135.698H136.325V107.398H150.5V150.5Z" fill="#F8F7F7"/>
<path d="M39.8784 130.399L26.8374 124.567L62.8419 36.5272H96.6919L123.142 107.427H76.7618V92.6255H102.39L86.9962 51.3289H72.1975L39.8784 130.399Z" fill="#F8F7F7"/>
</g>
<defs>
<clipPath id="clip0_39_4860">
<rect width="150" height="150" fill="white" transform="translate(0.5 0.5)"/>
</clipPath>
</defs>
</svg>
