<svg width="70" height="70" viewBox="0 0 70 70" fill="none" xmlns="http://www.w3.org/2000/svg">
<g clip-path="url(#clip0_282_6596)">
<path d="M70 70H28.5107C12.7934 70 0 56.641 0 40.2289V18.8988C0 8.48234 8.12323 0 18.0987 0H65.343C67.9097 0 70 2.18275 70 4.86284V16.8127H63.385V6.90744H18.0987C11.7747 6.90744 6.61501 12.2814 6.61501 18.8988V40.2289C6.61501 52.8281 16.4317 63.0926 28.5107 63.0926H63.385V49.8855H70V70Z" fill="#F8CA7C"/>
<path d="M18.3768 60.6197L12.291 57.8982L29.0931 16.8127H44.8898L57.2334 49.8994H35.5891V42.9919H47.549L40.3651 23.7202H33.459L18.3768 60.6197Z" fill="#F8CA7C"/>
</g>
<defs>
<clipPath id="clip0_282_6596">
<rect width="70" height="70" fill="white"/>
</clipPath>
</defs>
</svg>
